<?xml version="1.0" standalone="no"?>
<!DOCTYPE svg PUBLIC "-//W3C//DTD SVG 20010904//EN"
 "http://www.w3.org/TR/2001/REC-SVG-20010904/DTD/svg10.dtd">
<svg version="1.0" xmlns="http://www.w3.org/2000/svg"
 width="512.000000pt" height="512.000000pt" viewBox="0 0 512.000000 512.000000"
 preserveAspectRatio="xMidYMid meet">

<g transform="translate(0.000000,512.000000) scale(0.100000,-0.100000)"
fill="#000000" stroke="none">
<path d="M2490 4680 l0 -40 40 0 40 0 0 40 0 40 -40 0 -40 0 0 -40z"/>
<path d="M2283 4703 c-28 -4 -33 -8 -33 -31 0 -43 13 -55 52 -48 32 6 33 8 30
46 -2 22 -7 39 -11 38 -3 0 -21 -3 -38 -5z"/>
<path d="M2736 4688 c-13 -50 -8 -58 33 -58 36 0 40 3 46 30 9 39 0 50 -39 50
-26 0 -35 -5 -40 -22z"/>
<path d="M2975 4644 c-4 -26 -3 -39 7 -45 20 -13 68 -11 68 4 0 6 3 22 6 34 6
21 5 22 -57 39 -13 3 -18 -5 -24 -32z"/>
<path d="M2041 4658 c-32 -9 -33 -11 -26 -46 4 -20 8 -38 9 -39 1 -1 19 2 40
8 35 10 37 12 31 42 -9 43 -14 46 -54 35z"/>
<path d="M3209 4583 c-13 -40 -7 -50 38 -59 28 -6 32 -4 38 25 9 43 8 45 -30
58 -34 11 -34 11 -46 -24z"/>
<path d="M1813 4586 c-18 -6 -33 -14 -33 -18 0 -29 1 -36 13 -51 10 -15 17
-16 45 -6 35 12 37 20 19 60 -11 25 -14 26 -44 15z"/>
<path d="M3436 4493 c-9 -20 -16 -37 -14 -38 2 -1 17 -10 35 -19 32 -16 32
-16 48 13 21 41 20 45 -19 63 l-33 16 -17 -35z"/>
<path d="M1578 4484 c-16 -8 -28 -18 -28 -22 0 -6 18 -36 36 -60 3 -5 64 27
64 34 0 11 -31 64 -38 64 -4 -1 -19 -8 -34 -16z"/>
<path d="M3649 4383 c-7 -16 -15 -31 -17 -35 -3 -6 49 -38 62 -38 2 0 14 13
26 30 l21 30 -33 20 c-42 25 -42 25 -59 -7z"/>
<path d="M1370 4363 c-14 -9 -27 -18 -28 -19 -7 -5 33 -64 43 -64 5 0 21 9 35
20 24 18 25 20 8 47 -21 35 -28 37 -58 16z"/>
<path d="M3851 4244 c-26 -33 -26 -34 9 -62 l28 -22 22 31 22 30 -23 25 c-28
30 -33 30 -58 -2z"/>
<path d="M1177 4220 c-33 -26 -34 -37 -6 -67 l22 -22 28 20 c35 24 35 26 6 62
l-22 29 -28 -22z"/>
<path d="M4030 4085 l-24 -25 29 -30 29 -30 28 27 28 27 -27 28 c-15 15 -30
28 -33 28 -4 0 -17 -11 -30 -25z"/>
<path d="M990 4045 l-23 -25 23 -25 c30 -32 43 -31 65 1 16 25 16 27 -6 50
-28 30 -30 30 -59 -1z"/>
<path d="M4196 3907 l-29 -24 23 -31 c21 -29 26 -31 44 -19 39 26 43 45 16 72
l-25 25 -29 -23z"/>
<path d="M837 3862 c-24 -34 -22 -43 12 -64 27 -18 28 -17 50 13 l23 31 -28
24 c-16 13 -31 23 -34 24 -3 0 -13 -12 -23 -28z"/>
<path d="M4340 3713 c-14 -9 -26 -17 -28 -19 -8 -5 30 -64 41 -64 6 0 23 9 36
19 22 17 23 19 7 49 -19 37 -23 38 -56 15z"/>
<path d="M2451 3706 c-111 -37 -217 -150 -241 -259 -7 -31 -11 -102 -8 -172 3
-103 7 -128 30 -176 14 -31 42 -74 62 -96 32 -36 36 -46 36 -97 0 -59 -17
-112 -42 -133 -8 -7 -54 -24 -102 -38 -102 -30 -168 -61 -252 -120 -135 -96
-177 -165 -335 -542 -71 -170 -137 -314 -146 -321 -10 -7 -131 -94 -270 -193
-240 -172 -253 -183 -279 -235 -22 -46 -26 -63 -21 -106 4 -29 17 -67 31 -88
29 -45 113 -90 166 -90 l36 0 -35 -72 c-34 -68 -36 -77 -36 -172 0 -89 3 -108
27 -159 38 -80 117 -161 197 -200 l66 -32 480 0 c430 0 492 2 600 20 152 25
221 25 370 0 107 -18 168 -20 555 -20 l435 0 65 31 c114 54 181 128 220 245
33 95 25 195 -22 289 l-34 70 36 0 c52 0 133 44 164 89 16 23 29 58 33 89 5
43 1 60 -21 107 -26 53 -38 63 -289 242 -144 102 -266 189 -270 193 -4 4 -65
145 -136 314 -158 376 -200 445 -335 541 -84 59 -150 90 -252 120 -48 14 -94
31 -102 38 -26 21 -42 74 -42 134 1 53 4 61 36 93 19 19 47 60 62 90 26 52 27
62 27 205 0 144 -1 152 -29 212 -34 74 -113 154 -183 185 -61 27 -189 34 -252
14z m221 -94 c55 -24 110 -80 139 -140 17 -35 24 -69 27 -147 5 -118 -11 -188
-58 -253 -35 -49 -118 -99 -177 -108 -42 -6 -43 -7 -43 -45 0 -34 3 -39 23
-39 13 0 46 7 73 15 27 8 50 15 52 15 1 0 2 -15 2 -32 0 -63 21 -112 65 -154
34 -33 56 -45 114 -59 180 -44 352 -169 423 -309 12 -23 77 -173 144 -335 68
-162 130 -302 139 -310 8 -9 129 -97 267 -196 274 -196 303 -224 295 -288 -9
-65 -72 -114 -134 -104 -23 4 -127 72 -322 211 -158 113 -296 215 -306 226
-11 12 -87 175 -170 362 -84 188 -159 347 -168 352 -12 8 -22 8 -34 0 -17 -10
-18 -44 -21 -430 -3 -446 -1 -470 45 -524 47 -57 52 -58 526 -171 115 -27 230
-60 256 -73 57 -29 116 -92 144 -155 31 -68 29 -189 -3 -256 -30 -63 -92 -124
-155 -156 l-50 -24 -435 1 c-239 1 -457 5 -485 10 l-50 10 109 37 c144 50 284
117 320 153 100 100 70 272 -59 337 -54 27 -89 28 -195 7 -278 -54 -576 -64
-900 -31 -96 10 -178 16 -182 14 -5 -2 -8 -19 -8 -38 0 -41 -10 -38 235 -61
267 -25 573 -15 796 24 92 16 177 28 191 25 89 -17 132 -147 71 -215 -42 -49
-313 -155 -524 -207 -253 -62 -308 -66 -819 -66 l-465 0 -56 26 c-117 55 -183
159 -184 289 0 62 5 85 28 132 30 61 84 116 144 146 21 11 171 52 333 91 399
96 396 95 444 151 45 54 47 78 44 524 -3 386 -4 420 -20 430 -13 8 -23 8 -35
0 -9 -5 -84 -164 -168 -352 -83 -187 -159 -350 -170 -362 -10 -11 -148 -113
-306 -226 -195 -139 -299 -207 -322 -211 -97 -15 -170 96 -115 176 14 21 122
106 273 213 137 98 258 187 268 196 10 10 73 151 141 313 67 162 132 312 143
334 73 141 244 266 423 310 61 15 81 25 116 60 50 51 64 92 64 194 0 72 -1 75
-39 116 -76 82 -86 113 -86 261 0 125 1 133 30 189 69 133 221 187 357 127z
m-647 -2223 c-9 -16 -30 -36 -48 -45 -28 -12 -609 -156 -613 -151 -1 1 92 69
208 152 116 82 218 161 227 175 10 14 67 137 127 273 l109 248 3 -311 c2 -265
0 -315 -13 -341z m1172 399 c60 -135 116 -257 125 -270 8 -12 110 -90 226
-173 116 -82 210 -151 209 -152 -4 -3 -583 138 -611 149 -15 6 -37 25 -47 42
-17 29 -19 55 -19 345 0 173 2 312 4 310 2 -2 53 -115 113 -251z"/>
<path d="M695 3649 c-9 -17 -15 -32 -13 -34 2 -1 17 -10 35 -19 l32 -16 17 32
c16 31 16 32 -6 50 -32 26 -47 22 -65 -13z"/>
<path d="M4465 3503 c-40 -21 -39 -19 -25 -53 14 -34 15 -34 59 -19 36 13 36
13 13 56 -17 31 -17 31 -47 16z"/>
<path d="M585 3433 c-8 -20 -14 -37 -13 -38 15 -8 61 -25 67 -25 5 0 11 8 14
18 2 9 8 25 12 34 5 12 -2 21 -24 32 -40 21 -38 21 -56 -21z"/>
<path d="M4548 3278 c-31 -11 -32 -13 -17 -56 9 -27 13 -29 39 -22 46 13 49
17 37 55 -11 37 -16 39 -59 23z"/>
<path d="M507 3233 c-3 -5 -8 -22 -11 -39 -6 -28 -4 -31 29 -41 34 -11 37 -10
46 13 15 40 11 51 -22 63 -38 13 -37 13 -42 4z"/>
<path d="M4621 3048 c-32 -9 -33 -11 -28 -45 4 -19 7 -37 9 -38 2 -2 19 0 38
4 33 7 35 9 32 42 -5 44 -10 48 -51 37z"/>
<path d="M437 2964 c-4 -21 -5 -39 -4 -40 1 -1 19 -4 39 -8 36 -7 37 -6 44 29
8 43 6 44 -38 51 -34 6 -35 5 -41 -32z"/>
<path d="M4630 2770 l0 -40 40 0 40 0 0 40 0 40 -40 0 -40 0 0 -40z"/>
<path d="M410 2736 c0 -13 -3 -31 -6 -39 -4 -11 5 -16 35 -19 40 -3 41 -2 47
30 7 39 -5 52 -48 52 -23 0 -28 -4 -28 -24z"/>
<path d="M4640 2525 l0 -45 40 0 40 0 0 45 0 45 -40 0 -40 0 0 -45z"/>
<path d="M413 2513 c-15 -6 -17 -69 -3 -78 6 -4 24 -4 40 0 27 6 30 10 30 46
0 36 -2 39 -27 38 -16 0 -34 -3 -40 -6z"/>
<path d="M4627 2313 c-4 -3 -7 -21 -7 -39 0 -29 3 -32 35 -36 20 -2 38 -2 40
1 3 2 5 22 5 43 0 36 -1 38 -33 38 -19 0 -37 -3 -40 -7z"/>
<path d="M447 2273 c-27 -4 -29 -7 -22 -41 4 -20 8 -39 10 -41 2 -2 21 0 41 3
34 7 36 9 30 38 -3 17 -6 34 -6 39 0 9 -3 9 -53 2z"/>
<path d="M4586 2081 c-2 -3 -7 -20 -11 -38 -6 -30 -4 -33 27 -41 40 -11 49 -4
51 39 2 29 -1 33 -31 40 -18 3 -34 4 -36 0z"/>
<path d="M487 2033 c-15 -4 -17 -11 -12 -36 9 -43 17 -49 49 -41 34 8 39 18
31 54 -7 30 -21 35 -68 23z"/>
<path d="M4509 1834 c-5 -15 -12 -31 -15 -36 -4 -7 53 -38 70 -38 4 0 26 58
26 71 0 6 -53 29 -67 29 -2 0 -8 -12 -14 -26z"/>
<path d="M573 1804 c-31 -13 -32 -16 -21 -41 18 -42 22 -44 56 -32 36 12 36
14 21 58 -12 35 -12 35 -56 15z"/>
<path d="M4407 1605 l-17 -35 30 -15 c40 -21 44 -20 62 19 l16 33 -34 17 c-19
9 -36 16 -37 16 -2 0 -11 -16 -20 -35z"/>
<path d="M673 1583 l-31 -16 16 -33 c18 -39 23 -40 62 -17 28 16 28 17 12 50
-18 38 -16 37 -59 16z"/>
</g>
</svg>
