<?xml version="1.0" standalone="no"?>
<!DOCTYPE svg PUBLIC "-//W3C//DTD SVG 20010904//EN"
 "http://www.w3.org/TR/2001/REC-SVG-20010904/DTD/svg10.dtd">
<svg version="1.0" xmlns="http://www.w3.org/2000/svg"
 width="512.000000pt" height="512.000000pt" viewBox="0 0 512.000000 512.000000"
 preserveAspectRatio="xMidYMid meet">

<g transform="translate(0.000000,512.000000) scale(0.100000,-0.100000)"
fill="#000000" stroke="none">
<path d="M2520 4760 l0 -40 40 0 40 0 0 40 0 40 -40 0 -40 0 0 -40z"/>
<path d="M2308 4783 c-24 -4 -28 -9 -28 -39 0 -39 16 -50 56 -40 22 6 25 11
22 43 -3 39 -8 42 -50 36z"/>
<path d="M2758 4753 c-3 -21 -4 -39 -3 -41 1 -2 19 -5 38 -9 35 -5 36 -4 43
31 3 20 5 38 3 40 -2 2 -20 6 -40 10 -36 6 -37 6 -41 -31z"/>
<path d="M2068 4728 c-32 -11 -32 -13 -17 -56 10 -29 12 -30 42 -20 41 14 39
11 32 52 -8 38 -13 40 -57 24z"/>
<path d="M2996 4718 c-11 -43 -6 -55 28 -65 32 -10 35 -9 40 12 3 13 8 30 12
38 3 10 -5 18 -27 26 -43 15 -46 14 -53 -11z"/>
<path d="M1843 4644 c-18 -8 -33 -17 -33 -20 0 -13 31 -64 40 -64 17 0 60 23
60 32 0 9 -29 69 -33 67 -1 0 -17 -7 -34 -15z"/>
<path d="M3221 4629 c-6 -18 -11 -35 -11 -40 0 -7 61 -32 65 -27 2 2 10 18 19
35 l16 33 -36 15 c-20 8 -38 15 -39 15 -2 0 -8 -14 -14 -31z"/>
<path d="M3432 4516 l-21 -35 32 -20 32 -20 22 27 c27 33 26 38 -14 63 l-31
20 -20 -35z"/>
<path d="M1621 4521 l-24 -18 22 -32 c22 -31 23 -31 52 -14 34 20 35 25 13 58
-19 30 -31 31 -63 6z"/>
<path d="M3630 4380 l-23 -32 27 -26 26 -27 27 28 28 27 -31 31 -31 31 -23
-32z"/>
<path d="M1430 4375 l-24 -26 26 -26 c26 -25 26 -25 52 -7 32 24 32 35 3 62
-29 27 -28 27 -57 -3z"/>
<path d="M2475 4221 c-83 -37 -121 -111 -113 -222 4 -53 12 -79 32 -110 15
-22 26 -50 24 -62 -3 -19 -9 -21 -68 -18 -173 6 -478 68 -620 125 -73 30 -118
33 -161 10 -31 -16 -59 -66 -59 -106 0 -36 36 -85 77 -107 122 -62 372 -126
591 -152 l102 -12 0 -300 0 -300 -101 -391 c-56 -215 -103 -395 -106 -399 -2
-4 -21 6 -41 23 -64 54 -180 128 -230 146 -37 14 -83 53 -222 189 -181 179
-268 245 -354 270 -63 19 -166 19 -211 1 -24 -10 -37 -11 -41 -4 -4 6 -13 90
-20 187 -27 356 -45 436 -115 515 -51 59 -121 89 -204 90 -86 1 -149 -21 -196
-70 l-34 -35 -3 -357 c-2 -226 1 -380 8 -420 13 -74 239 -716 271 -770 12 -20
151 -167 308 -327 334 -339 357 -363 366 -392 6 -23 5 -23 -74 -23 l-81 0 0
-120 0 -120 -80 0 -80 0 0 -280 0 -280 40 0 40 0 0 240 0 240 640 0 640 0 0
-240 0 -240 40 0 40 0 0 280 0 280 -40 0 -40 0 0 120 0 120 -40 0 -40 0 0 183
c0 208 -12 328 -45 442 l-23 80 151 422 c84 233 154 423 157 423 3 0 73 -191
157 -424 l152 -423 -20 -64 c-34 -110 -49 -242 -49 -446 l0 -193 -40 0 -40 0
0 -120 0 -120 -40 0 -40 0 0 -280 0 -280 40 0 40 0 0 240 0 240 640 0 640 0 0
-240 0 -240 40 0 40 0 0 280 0 280 -80 0 -80 0 0 120 0 120 -81 0 c-124 0
-140 -23 297 420 154 157 290 301 302 321 32 54 259 697 272 770 7 41 10 193
8 421 l-3 357 -34 35 c-47 49 -110 71 -196 70 -83 -1 -153 -31 -204 -90 -70
-79 -88 -159 -115 -515 -7 -97 -16 -181 -20 -187 -4 -7 -17 -6 -41 4 -45 18
-148 18 -211 -1 -86 -25 -173 -91 -354 -270 -141 -138 -184 -175 -223 -190
-50 -18 -162 -90 -229 -147 -21 -17 -39 -30 -41 -27 -2 2 -49 182 -105 400
l-102 395 0 301 0 301 63 7 c269 28 604 121 669 185 73 73 22 200 -80 200 -17
0 -83 -18 -148 -40 -188 -62 -444 -110 -590 -110 -48 0 -54 2 -54 20 0 11 12
39 27 62 32 48 43 152 23 212 -26 80 -104 136 -190 136 -25 0 -63 -9 -85 -19z
m143 -81 c94 -57 74 -233 -29 -255 -26 -6 -29 -11 -29 -47 0 -40 1 -40 30 -34
27 5 30 3 30 -18 0 -13 8 -33 18 -45 17 -21 20 -21 147 -11 233 19 481 69 634
130 61 24 84 25 101 5 20 -24 2 -52 -48 -73 -146 -62 -360 -113 -554 -132 -62
-7 -123 -16 -135 -21 l-23 -9 0 -337 0 -337 111 -429 c92 -357 109 -433 100
-451 -18 -33 -49 -71 -54 -66 -2 3 -75 205 -163 448 -105 295 -165 447 -176
453 -11 6 -25 6 -35 0 -12 -6 -72 -159 -177 -453 -87 -243 -161 -445 -163
-448 -5 -5 -36 33 -54 66 -9 18 8 94 100 451 l111 429 0 337 0 337 -22 9 c-13
5 -77 14 -142 20 -186 18 -379 63 -523 123 -74 30 -96 55 -73 83 17 21 38 19
113 -10 172 -64 376 -106 611 -125 172 -13 176 -11 176 91 0 59 -4 72 -27 99
-55 66 -40 178 30 220 41 25 73 25 115 0z m-1931 -632 c60 -15 115 -70 136
-134 20 -62 33 -162 51 -396 8 -103 20 -196 26 -207 9 -18 2 -29 -62 -90 l-73
-70 342 -343 343 -343 27 28 28 27 -315 316 -315 315 47 44 c76 69 126 88 212
83 113 -7 152 -34 371 -249 168 -166 197 -190 248 -209 144 -54 332 -224 400
-361 64 -130 78 -212 84 -481 l5 -238 -399 0 -399 0 -12 47 c-12 43 -43 77
-341 378 -181 181 -336 345 -345 363 -26 50 -243 665 -255 722 -7 31 -11 184
-11 399 0 391 -5 367 77 397 47 17 72 17 130 2z m3876 -2 c82 -30 77 -6 77
-397 0 -215 -4 -368 -11 -399 -12 -57 -229 -672 -255 -722 -9 -18 -164 -182
-345 -363 -298 -301 -329 -335 -341 -378 l-12 -47 -399 0 -399 0 5 238 c6 269
20 349 84 482 30 61 56 95 143 181 87 87 122 114 189 148 46 22 90 41 98 41 8
0 97 82 198 182 244 239 287 267 404 268 78 0 130 -22 199 -85 l47 -44 -315
-315 -315 -316 28 -27 27 -28 343 343 342 343 -72 69 -71 69 12 43 c7 24 16
97 20 163 11 176 34 363 52 419 38 112 156 171 267 132z m-2243 -2466 l0 -80
-520 0 -520 0 0 80 0 80 520 0 520 0 0 -80z m1520 0 l0 -80 -520 0 -520 0 0
80 0 80 520 0 520 0 0 -80z"/>
<path d="M1260 4205 l-24 -26 27 -27 27 -27 27 27 27 27 -24 26 c-13 14 -26
25 -30 25 -4 0 -17 -11 -30 -25z"/>
<path d="M3797 4207 l-28 -22 29 -28 29 -28 29 25 29 24 -24 26 c-30 31 -29
31 -64 3z"/>
<path d="M1112 4008 l-21 -32 27 -18 c37 -24 45 -23 65 11 17 29 17 30 -12 50
-16 12 -31 21 -34 21 -3 0 -14 -14 -25 -32z"/>
<path d="M3950 4023 c-14 -9 -27 -18 -28 -19 -7 -5 33 -64 43 -64 5 0 21 9 35
20 24 18 25 20 8 47 -21 35 -28 37 -58 16z"/>
<path d="M995 3793 c-8 -20 -14 -37 -13 -38 15 -8 61 -25 67 -25 7 0 31 52 31
66 0 4 -57 34 -64 34 -3 0 -13 -16 -21 -37z"/>
<path d="M4068 3814 c-32 -17 -31 -12 -17 -53 13 -36 10 -35 54 -17 34 15 34
15 21 48 -17 39 -23 41 -58 22z"/>
<path d="M910 3564 c-7 -19 -10 -37 -8 -39 1 -2 19 -6 39 -10 34 -6 36 -5 46
29 10 34 10 35 -20 45 -43 15 -44 15 -57 -25z"/>
<path d="M4143 3590 c-20 -8 -21 -12 -10 -45 10 -33 13 -35 41 -29 43 9 48 16
35 52 -11 33 -26 38 -66 22z"/>
</g>
</svg>
