<?xml version="1.0" standalone="no"?>
<!DOCTYPE svg PUBLIC "-//W3C//DTD SVG 20010904//EN"
 "http://www.w3.org/TR/2001/REC-SVG-20010904/DTD/svg10.dtd">
<svg version="1.0" xmlns="http://www.w3.org/2000/svg"
 width="512.000000pt" height="512.000000pt" viewBox="0 0 512.000000 512.000000"
 preserveAspectRatio="xMidYMid meet">

<g transform="translate(0.000000,512.000000) scale(0.100000,-0.100000)"
fill="#000000" stroke="none">
<path d="M1495 4761 c-147 -40 -241 -97 -347 -210 -84 -88 -149 -216 -174
-341 -44 -223 25 -479 205 -759 l15 -24 -44 6 c-25 3 -73 3 -107 0 l-63 -6 0
-1553 0 -1554 40 0 40 0 0 1514 c0 1017 3 1517 10 1521 23 14 121 -8 172 -39
44 -26 59 -42 84 -94 46 -92 54 -170 54 -528 l0 -315 181 -192 c104 -110 188
-191 198 -190 9 0 180 27 381 59 l365 58 278 209 277 210 0 261 c0 277 9 356
49 434 42 82 129 132 230 132 l41 0 0 -538 0 -538 -334 -295 -335 -294 29 -29
28 -29 134 118 c73 64 228 201 345 304 l212 186 1 75 1 75 168 128 c93 71 184
138 202 149 117 72 245 91 328 49 47 -25 134 -108 126 -121 -3 -5 -280 -219
-615 -476 -336 -256 -610 -470 -610 -475 0 -4 10 -19 23 -33 l22 -26 510 396
510 396 52 -4 c75 -6 138 -48 191 -127 23 -34 42 -66 42 -71 0 -4 -261 -146
-580 -315 l-581 -308 27 -29 28 -28 175 91 c377 195 1031 544 1031 551 0 5
-17 42 -37 85 -49 99 -109 165 -183 201 l-58 27 84 64 84 63 -42 60 c-88 125
-183 181 -307 180 -132 0 -230 -49 -466 -232 l-120 -93 -3 473 -2 472 -105 -4
c-58 -1 -105 -2 -105 -1 0 2 18 32 40 67 188 308 234 598 133 841 -190 455
-776 581 -1137 244 l-72 -67 -26 32 c-33 41 -136 120 -198 151 -99 50 -169 67
-300 71 -101 3 -138 1 -195 -15z m320 -76 c142 -36 291 -140 370 -258 l33 -48
46 65 c81 114 222 209 358 241 81 19 216 19 297 0 204 -49 386 -221 451 -430
30 -95 31 -257 1 -369 -61 -231 -201 -452 -446 -704 -177 -183 -435 -396 -648
-537 l-58 -38 -112 76 c-228 154 -508 394 -660 564 -263 296 -387 538 -403
788 -19 296 171 563 458 646 80 22 232 24 313 4z m-17 -1874 c148 -118 398
-291 420 -291 52 0 489 331 687 521 l80 77 -3 -272 c-3 -250 -5 -272 -22 -286
-10 -8 -124 -95 -253 -192 l-234 -178 -349 -56 -349 -56 -133 139 c-73 76
-143 152 -156 168 l-24 30 -4 351 -3 351 105 -100 c58 -55 165 -148 238 -206z"/>
<path d="M3655 1592 l-70 -37 225 -6 c202 -5 231 -8 283 -28 103 -40 156 -108
157 -198 l0 -43 -647 0 -648 -1 -307 -272 -308 -272 0 -207 0 -208 40 0 40 0
0 188 0 189 283 251 282 251 673 1 672 0 0 83 c0 100 -11 141 -53 203 -66 98
-201 144 -422 143 l-130 0 -70 -37z"/>
</g>
</svg>
